PathFileType	4	(X/Y/Z)	OpenSim_Sub01_CSStiffKnee_Magnet.trc
DataRate	CameraRate	NumFrames	NumMarkers	Units	OrigDataRate	OrigDataStartFrame	OrigNumFrames
100	100	26	8	m	100	2691	5381
Frame#	Time	torso_imu_offset_imu	pelvis_imu_offset_imu	tibia_r_imu_offset_imu	femur_r_imu_offset_imu	tibia_l_imu_offset_imu	femur_l_imu_offset_imu	toes_r_imu_offset_imu	toes_l_imu_offset_imu
				X1	Y1	Z1	X2	Y2	Z2	X3	Y3	Z3	X4	Y4	Z4	X5	Y5	Z5	X6	Y6	Z6	X7	Y7	Z7	X8		Y8	Z8	

2691	26.90000000	-0.93530235	-0.07431808	0.03933260	-0.65289321	-0.00753864	-0.68782678	-0.58465397	-0.54388791	0.07582042	-0.67288597	-0.45222277	0.12762785	-0.46312988	0.67181297	0.07249349	-0.43344374	0.05217883	0.25945320	-0.72122026	-0.09071981	-0.32895124	-0.75117583	-0.15758237	-0.26911157
2692	26.91000000	-0.93227846	-0.07091270	0.04144897	-0.65059089	-0.00788340	-0.68835394	-0.58414526	-0.54858284	0.07419544	-0.66850792	-0.45965850	0.12434003	-0.48002013	0.65850042	0.07522473	-0.43938187	0.04741843	0.25553539	-0.72270250	-0.09171980	-0.32739256	-0.74619702	-0.15976918	-0.28334812
2693	26.92000000	-0.93251346	-0.06559884	0.04353419	-0.65051765	-0.00857340	-0.68644487	-0.58098690	-0.55361977	0.07038289	-0.66634804	-0.46592829	0.12367506	-0.49741230	0.64554753	0.07501463	-0.44476039	0.04016207	0.25151574	-0.72157869	-0.08982926	-0.32371506	-0.74208890	-0.16112390	-0.29994592
2694	26.93000000	-0.93445255	-0.06031677	0.04482473	-0.65213620	-0.00964763	-0.68420342	-0.57682000	-0.55862422	0.06545907	-0.66503225	-0.47135153	0.12343222	-0.51367334	0.63232186	0.07461211	-0.44943581	0.03163358	0.24825163	-0.72052812	-0.08779936	-0.31887736	-0.73620424	-0.16266630	-0.31636313
2695	26.94000000	-0.93616612	-0.05713840	0.04459693	-0.65461035	-0.01085663	-0.68386880	-0.57353892	-0.56322140	0.06077084	-0.66302174	-0.47646660	0.12123440	-0.52729794	0.61806655	0.07697428	-0.45331821	0.02329263	0.24650127	-0.72242351	-0.08849016	-0.31405078	-0.72596307	-0.16537589	-0.32998983
2696	26.95000000	-0.93704367	-0.05579450	0.04397414	-0.65673496	-0.01178005	-0.68512056	-0.57113727	-0.56732591	0.05777434	-0.66023216	-0.48139141	0.11741846	-0.53954538	0.60297889	0.08125448	-0.45658604	0.01605939	0.24523320	-0.72694040	-0.09094963	-0.30984901	-0.71318518	-0.16899306	-0.34249055
2697	26.96000000	-0.93725361	-0.05463837	0.04516250	-0.65709206	-0.01189863	-0.68613147	-0.56848992	-0.57102324	0.05798164	-0.65743628	-0.48599623	0.11391848	-0.55329834	0.58781838	0.08436791	-0.45957606	0.01053210	0.24236729	-0.73187054	-0.09198529	-0.30655515	-0.70227449	-0.17252875	-0.35803892
2698	26.97000000	-0.93711930	-0.05278583	0.04892064	-0.65528281	-0.01109869	-0.68574748	-0.56500712	-0.57444460	0.06109322	-0.65520757	-0.49022579	0.11185964	-0.56986106	0.57319626	0.08447061	-0.46263179	0.00653611	0.23732338	-0.73549161	-0.09017274	-0.30410276	-0.69522481	-0.17531863	-0.37817159
2699	26.98000000	-0.93728739	-0.05109391	0.05274623	-0.65318850	-0.01017443	-0.68436009	-0.56132597	-0.57781817	0.06276589	-0.65365021	-0.49419823	0.11051636	-0.58696902	0.55937682	0.08255171	-0.46610733	0.00218153	0.23289837	-0.73721986	-0.08809729	-0.30165507	-0.68857785	-0.17744383	-0.39846891
2700	26.99000000	-0.93832651	-0.05052942	0.05397031	-0.65279219	-0.00993922	-0.68259506	-0.55813350	-0.58138631	0.05874485	-0.65275912	-0.49802231	0.10899391	-0.60204887	0.54653032	0.08000550	-0.47028004	-0.00446172	0.23197558	-0.73677434	-0.08859003	-0.29839540	-0.67858427	-0.17909688	-0.41416994
2701	27	-0.93954835	-0.05076055	0.05275871	-0.65394244	-0.01013664	-0.68133796	-0.55491902	-0.58540200	0.05133633	-0.65205683	-0.50146763	0.10723673	-0.61432386	0.53434100	0.07845200	-0.47462068	-0.01334277	0.23361325	-0.73540955	-0.09141867	-0.29479050	-0.66610542	-0.18057841	-0.42530983
2702	27.01000000	-0.93952752	-0.05069209	0.05094782	-0.65523071	-0.00988172	-0.68162377	-0.55047021	-0.59012269	0.04670261	-0.65078874	-0.50410626	0.10568238	-0.62407862	0.52220660	0.07963810	-0.47812721	-0.02324320	0.23461992	-0.73528051	-0.09454816	-0.29206029	-0.65471575	-0.18225143	-0.43474784
2703	27.02000000	-0.93776733	-0.04978673	0.05000343	-0.65567590	-0.00883755	-0.68367034	-0.54462139	-0.59542415	0.04795723	-0.64851677	-0.50605327	0.10436734	-0.63191559	0.50957461	0.08398108	-0.48043108	-0.03317387	0.23324398	-0.73743439	-0.09686515	-0.29059295	-0.64653744	-0.18417713	-0.44424075
2704	27.03000000	-0.93586457	-0.04877404	0.05051633	-0.65528697	-0.00790817	-0.68586791	-0.53956256	-0.60033036	0.05129998	-0.64551708	-0.50864096	0.10241891	-0.63911584	0.49601174	0.08892795	-0.48259097	-0.04269089	0.23101139	-0.74042037	-0.09936496	-0.28889902	-0.64037409	-0.18574156	-0.45300400
2705	27.04000000	-0.93551746	-0.04845726	0.05282481	-0.65425291	-0.00800685	-0.68650918	-0.53743416	-0.60391316	0.05240325	-0.64219581	-0.51315073	0.09906299	-0.64689473	0.48124939	0.09181789	-0.48570339	-0.05149332	0.22970607	-0.74256342	-0.10311756	-0.28540018	-0.63465085	-0.18636654	-0.46006050
2706	27.05000000	-0.93654757	-0.04863054	0.05588264	-0.65323842	-0.00840855	-0.68543255	-0.53657516	-0.60692844	0.05115258	-0.63930343	-0.51863851	0.09581375	-0.65484158	0.46655233	0.09302654	-0.48926200	-0.05999444	0.22919685	-0.74336294	-0.10701861	-0.28022352	-0.62852190	-0.18678642	-0.46599518
2707	27.06000000	-0.93767143	-0.04849479	0.05783180	-0.65318656	-0.00742633	-0.68338847	-0.53309268	-0.61112026	0.04991292	-0.63778889	-0.52285295	0.09552528	-0.66159061	0.45408302	0.09471567	-0.49181841	-0.06902614	0.22822627	-0.74301238	-0.10868795	-0.27449986	-0.62157382	-0.18850519	-0.47231178
2708	27.07000000	-0.93804916	-0.04768125	0.05786051	-0.65456345	-0.00432656	-0.68116988	-0.52536984	-0.61712346	0.04979200	-0.63762401	-0.52472653	0.09894729	-0.66664032	0.44453476	0.09797623	-0.49267348	-0.07884641	0.22626483	-0.74196197	-0.10720048	-0.26888193	-0.61388706	-0.19204382	-0.47994446
2709	27.08000000	-0.93786233	-0.04679854	0.05751486	-0.65676301	-0.00053052	-0.67963832	-0.51693243	-0.62306939	0.04902082	-0.63659463	-0.52587081	0.10209540	-0.67144524	0.43529693	0.10145834	-0.49282695	-0.08842057	0.22443984	-0.74121485	-0.10491451	-0.26292673	-0.60663159	-0.19570762	-0.48853004
2710	27.09000000	-0.93744045	-0.04655061	0.05847516	-0.65901228	0.00241608	-0.67957044	-0.51157760	-0.62701822	0.04571163	-0.63252129	-0.52809894	0.10085882	-0.67754797	0.42366995	0.10366002	-0.49343359	-0.09669214	0.22394485	-0.74170082	-0.10438165	-0.25610363	-0.60098076	-0.19774959	-0.49744157
2711	27.10000000	-0.93721322	-0.04726042	0.06051366	-0.66031340	0.00469283	-0.68077112	-0.50872034	-0.62979218	0.04076937	-0.62663620	-0.53156289	0.09643436	-0.68466804	0.41065074	0.10491842	-0.49487574	-0.10418482	0.22434293	-0.74282049	-0.10556269	-0.24850819	-0.59662069	-0.19897738	-0.50514089
2712	27.11000000	-0.93766722	-0.04902384	0.06227925	-0.65954103	0.00749353	-0.68247232	-0.50519866	-0.63383584	0.03674062	-0.62217681	-0.53543534	0.09313983	-0.69145064	0.39940979	0.10665250	-0.49707891	-0.11234978	0.22423825	-0.74307582	-0.10689355	-0.24060631	-0.59236288	-0.20169937	-0.50956013
2713	27.12000000	-0.93882546	-0.05143077	0.06288477	-0.65666535	0.01124863	-0.68398023	-0.49956157	-0.64009572	0.03494104	-0.62082502	-0.53902945	0.09316965	-0.69678481	0.39162572	0.10961498	-0.49972719	-0.12163254	0.22285462	-0.74170470	-0.10755285	-0.23306055	-0.58759256	-0.20688594	-0.51028932
2714	27.13000000	-0.93967483	-0.05294875	0.06251068	-0.65410471	0.01465619	-0.68478331	-0.49425021	-0.64612897	0.03389256	-0.62073396	-0.54200008	0.09389040	-0.70013454	0.38558563	0.11304091	-0.50197913	-0.13020804	0.22082603	-0.73961291	-0.10842027	-0.22696175	-0.58300030	-0.21247886	-0.51063294
2715	27.14000000	-0.93921368	-0.05212290	0.06149938	-0.65430544	0.01640507	-0.68447103	-0.49188880	-0.64935231	0.03185993	-0.61977270	-0.54410139	0.09230853	-0.70120806	0.37931405	0.11601048	-0.50300536	-0.13618557	0.21891329	-0.73782898	-0.11041666	-0.22323746	-0.57937606	-0.21615872	-0.51401848
2716	27.15000000	-0.93800558	-0.04986675	0.06037382	-0.65658377	0.01750932	-0.68342135	-0.49155492	-0.65046652	0.02835530	-0.61780676	-0.54563565	0.08845657	-0.70143150	0.37286218	0.11812542	-0.50283506	-0.14016821	0.21721646	-0.73631854	-0.11251154	-0.22053178	-0.57671205	-0.21714063	-0.51995471
